# xmcd
#
# Track frame offsets:
#       150
#       16867
#       33957
#       52567
#       70275
#       85367
#       102485
#       120852
#       135385
#       149115
#       162740
#       177895
#
# Disc length: 2749 seconds
#
# Revision: 5
# Processed by: cddbd v1.5.2PL0 Copyright (c) Steve Scherf et al.
# Submitted via: WaveLab 4.01
#
DISCID=9c0abb0c
DTITLE=Doctor And The Medics - Keep Thinking It's Tuesday
DYEAR=1987
DGENRE=Neo-Psychedelic
TTITLE0=01 - Drive... He Said
TTITLE1=02 - Wild Flowers
TTITLE2=03 - Gorilla
TTITLE3=04 - Jack Of Kent
TTITLE4=05 - When The Hammer Comes Down
TTITLE5=06 - Sea Of Stone
TTITLE6=07 - More
TTITLE7=08 - Madman Of Bernarae
TTITLE8=09 - I Keep Thinking It's Tuesday
TTITLE9=10 - Love And Everythink You Eat
TTITLE10=11 - I Wanna Choke On Your Love
TTITLE11=12 - Age Of Gold
EXTD=
EXTT0=
EXTT1=
EXTT2=
EXTT3=
EXTT4=
EXTT5=
EXTT6=
EXTT7=
EXTT8=
EXTT9=
EXTT10=
EXTT11=
PLAYORDER=
